<?xml version="1.0" encoding="utf-8"?>
<!-- Generator: Adobe Illustrator 22.0.0, SVG Export Plug-In . SVG Version: 6.00 Build 0)  -->
<svg version="1.1" id="Capa_1" xmlns="http://www.w3.org/2000/svg" xmlns:xlink="http://www.w3.org/1999/xlink" x="0px" y="0px"
	 viewBox="0 0 1476.1 462.1" style="enable-background:new 0 0 1476.1 462.1;" xml:space="preserve">
<style type="text/css">
	.st0{fill:#211915;}
	.st1{fill:#534E51;}
	.st2{fill:#0099DC;}
	.st3{fill:#FFFFFF;}
	.st4{fill:#424448;}
</style>
<g>
	<path id="XMLID_28_" class="st3" d="M194.2,260.6v22.6h53.9c-1.7,12.7-5.9,21.9-12.3,28.4c-7.9,7.9-20.2,16.5-41.6,16.5
		c-33.2,0-59.2-26.8-59.2-60s26-60,59.2-60c17.9,0,31,7.1,40.6,16.1l15.9-15.9c-13.4-13-31.4-22.9-56.5-22.9
		c-45.5,0-83.8,37.1-83.8,82.6s38.3,82.6,83.8,82.6c24.6,0,43.1-8.1,57.6-23.1c14.9-14.9,19.5-35.9,19.5-52.7
		c0-5.2-0.4-10.1-1.2-14.1H194.2z"/>
	<path class="st3" d="M261.5,145.2V112l52.2,0V56.2h33.4v55.7h52.2v32.6h-52.3l0,55.7h-33.2v-54.9H261.5z"/>
	<polygon class="st3" points="313.7,211.4 313.7,390.8 68.1,390.8 68.1,145.2 250.2,145.2 250.2,112 250.2,112 35,112 35,423.9 
		346.9,423.9 346.9,211.4 	"/>
	<path id="XMLID_27_" class="st3" d="M515.1,272.3V297h59c-1.8,13.8-6.4,24-13.4,31.1c-8.6,8.6-22.1,18.1-45.6,18.1
		c-36.3,0-64.7-29.3-64.7-65.6s28.4-65.6,64.7-65.6c19.6,0,33.9,7.7,44.5,17.7l17.4-17.4c-14.7-14.3-34.3-25.1-61.8-25.1
		c-49.8,0-91.6,40.5-91.6,90.3s41.9,90.3,91.6,90.3c26.9,0,47.2-8.8,63-25.3c16.3-16.3,21.4-39.2,21.4-57.7c0-5.7-0.4-11-1.3-15.5
		H515.1z"/>
	<g>
		<g>
			<path class="st3" d="M653,177.1h-22.5v12.8h20.8v12.9h-20.8v25.8h-14.7v-64.3H653V177.1z"/>
			<path class="st3" d="M674.6,187.4c5.4,0,9.8,1.8,13.1,5v-3.8h13.8v40h-13.6V224h-0.2c-3,3.3-7.6,5.7-13.1,5.7
				c-11.7,0-19.9-9.4-19.9-21.1S662.9,187.4,674.6,187.4z M678.7,218c5.4,0,9.3-3.9,9.3-9.4c0-5.5-4.1-9.4-9.3-9.4
				c-5.2,0-9.4,3.9-9.4,9.4C669.3,214.1,673.1,218,678.7,218z"/>
			<path class="st3" d="M710.8,188.5h13.8v5.8h0.2c0,0,4.4-6.9,12.2-6.9c5.1,0,8.7,2.5,8.7,2.5l-5.8,11.7c0,0-2.6-2.2-7.2-2.2
				c-7.2,0-8.2,7.1-8.2,8.1v21.1h-13.8V188.5z"/>
			<path class="st3" d="M749.7,188.5h13.8v4.2h0.2c3.1-3.1,7.1-5.4,11.5-5.4c5.3,0,11.2,2,14,7.3c4.2-5.1,8.9-7.3,13.3-7.3
				c7.3,0,15.6,3.7,15.6,14.8v26.4h-13.8v-22.6c0-4-2.1-7.5-7-7.5c-4.4,0-6.2,3.2-6.4,6.2v23.9h-13.8v-22.6c0-4-2.1-7.5-7-7.5
				c-4.6,0-6.4,3.5-6.4,6.7v23.4h-13.8V188.5z"/>
			<path class="st3" d="M843.5,187.4c5.4,0,9.8,1.8,13.1,5v-3.8h13.8v40h-13.6V224h-0.2c-3,3.3-7.6,5.7-13.1,5.7
				c-11.7,0-19.9-9.4-19.9-21.1S831.8,187.4,843.5,187.4z M847.6,218c5.4,0,9.3-3.9,9.3-9.4c0-5.5-4.1-9.4-9.3-9.4
				c-5.2,0-9.4,3.9-9.4,9.4C838.3,214.1,842,218,847.6,218z"/>
			<path class="st3" d="M891.5,208.5c0,5.5,4.3,9.9,9.5,9.9c4.1,0,6.7-1.9,6.7-1.9l4.7,9.6c0,0-4.5,3.6-13.4,3.6
				c-11.5,0-22.2-9.4-22.2-21.1c0-11.8,10.5-21.3,22.2-21.3c8.9,0,13.4,3.7,13.4,3.7l-4.7,9.4c0,0-2.6-1.9-6.7-1.9
				C895.8,198.7,891.5,203.1,891.5,208.5z"/>
			<path class="st3" d="M933.2,172c0,4.5-3.7,8.2-8.2,8.2c-4.5,0-8.2-3.7-8.2-8.2c0-4.5,3.7-8.2,8.2-8.2
				C929.5,163.8,933.2,167.5,933.2,172z M917.9,228.6h13.8v-40h-13.8V228.6z"/>
			<path class="st3" d="M958.5,187.4c5.4,0,9.8,1.8,13.1,5v-3.8h13.8v40h-13.6V224h-0.2c-3,3.3-7.6,5.7-13.1,5.7
				c-11.7,0-19.9-9.4-19.9-21.1S946.8,187.4,958.5,187.4z M962.6,218c5.4,0,9.3-3.9,9.3-9.4c0-5.5-4.1-9.4-9.3-9.4
				c-5.2,0-9.4,3.9-9.4,9.4C953.2,214.1,957,218,962.6,218z"/>
			<path class="st3" d="M1025.2,190.5l-4.5,9c0,0-4.7-2.5-8.9-2.5c-3,0-4.3,0.5-4.3,2.4c0,2.1,2.8,2.7,6.2,3.8
				c5.3,1.6,12.2,4.6,12.2,12.8c0,11.8-10.8,13.6-19,13.6c-9.7,0-15.4-5.4-15.4-5.4l5.6-9.4c0,0,5.5,4.6,9.9,4.6
				c2,0,4.3-0.2,4.3-2.9c0-2.9-4.4-3.1-8.9-5.5c-4.1-2.1-8.1-4.9-8.1-10.9c0-8.2,6.9-12.9,17.5-12.9
				C1019.5,187.4,1025.2,190.5,1025.2,190.5z"/>
		</g>
	</g>
	<g>
		<path class="st3" d="M693.1,369.3v-16.8c-1.9,2.5-4,4.9-6.2,7.2c-2.3,2.3-4.8,4.3-7.6,6.1c-2.8,1.8-5.8,3.2-9.2,4.2
			c-3.4,1-7.2,1.5-11.4,1.5c-12.7,0-22.5-3.9-29.5-11.6c-6.9-7.7-10.4-18.4-10.4-32v-76.1h33.3v65.4c0,7.9,1.8,13.8,5.3,17.8
			s8.5,6,14.9,6c6.4,0,11.5-2,15.2-6c3.7-4,5.6-9.9,5.6-17.8v-65.4h33.3v117.5H693.1z"/>
		<path class="st3" d="M825.1,369.3v-12.7c-4.1,4.5-9,8.1-14.7,10.8c-5.7,2.7-12.6,4.1-20.8,4.1c-5.6,0-10.8-0.8-15.7-2.3
			c-4.9-1.5-9.2-3.8-12.8-6.9c-3.7-3.1-6.5-6.8-8.7-11.3c-2.1-4.5-3.2-9.6-3.2-15.5v-0.4c0-6.4,1.2-12,3.5-16.7
			c2.3-4.7,5.6-8.5,9.8-11.6c4.2-3.1,9.1-5.4,14.9-6.9c5.8-1.5,12.2-2.3,19.2-2.3c6,0,11.2,0.4,15.7,1.3c4.5,0.9,8.8,2,13,3.5v-2
			c0-7-2.1-12.3-6.4-16c-4.2-3.7-10.5-5.5-18.8-5.5c-6.4,0-12.1,0.5-17,1.6c-4.9,1.1-10,2.7-15.5,4.7l-8.3-25.4
			c6.4-2.8,13.2-5,20.2-6.8c7-1.8,15.5-2.6,25.4-2.6c18.3,0,31.6,4.5,39.9,13.4c8.3,8.9,12.5,21.3,12.5,37.3v68.2H825.1z
			 M825.7,321.9c-2.9-1.3-6.2-2.4-9.8-3.2c-3.6-0.8-7.4-1.2-11.5-1.2c-7.2,0-12.8,1.4-16.9,4.2c-4.1,2.8-6.1,6.8-6.1,12.1v0.4
			c0,4.5,1.7,8,5,10.5c3.4,2.5,7.7,3.7,13.2,3.7c7.9,0,14.2-1.9,19-5.7c4.7-3.8,7.1-8.8,7.1-14.9V321.9z"/>
		<path class="st3" d="M955,284.5c-11.1,0-19.8,3.4-26.2,10.1c-6.4,6.7-9.5,17.2-9.5,31.3v43.4H886V251.8h33.3v23.7
			c3.4-8,8-14.5,13.8-19.3c5.8-4.8,13.7-7,23.7-6.6v34.9H955z"/>
		<path class="st3" d="M1062.4,369.3v-16.7c-4.1,5.5-9,10-14.8,13.6c-5.8,3.6-13,5.3-21.8,5.3c-6.9,0-13.5-1.3-19.9-3.9
			c-6.4-2.6-12.1-6.5-17.1-11.7c-5-5.2-9-11.5-11.9-19.1c-3-7.5-4.5-16.2-4.5-26v-0.4c0-9.8,1.5-18.4,4.5-26
			c3-7.5,6.9-13.9,11.8-19.1c4.9-5.2,10.6-9.1,17-11.7c6.4-2.6,13.2-3.9,20.2-3.9c8.9,0,16.3,1.7,22,5.2c5.8,3.5,10.6,7.5,14.6,12.2
			v-57.7h33.3v160H1062.4z M1062.9,310.3c0-4.9-0.8-9.3-2.3-13.4c-1.5-4-3.6-7.5-6.1-10.4c-2.6-2.9-5.6-5.1-9-6.6
			c-3.4-1.5-7.1-2.3-11.1-2.3s-7.6,0.8-11.1,2.3c-3.4,1.5-6.5,3.8-9.1,6.6c-2.6,2.9-4.7,6.3-6.2,10.3c-1.5,4-2.3,8.5-2.3,13.5v0.4
			c0,4.9,0.8,9.3,2.3,13.4c1.5,4,3.6,7.5,6.2,10.4c2.6,2.9,5.7,5.1,9.1,6.6c3.4,1.5,7.1,2.3,11.1,2.3s7.6-0.8,11.1-2.3
			c3.4-1.5,6.4-3.8,9-6.6c2.6-2.9,4.6-6.3,6.1-10.4c1.5-4,2.3-8.5,2.3-13.4V310.3z"/>
		<path class="st3" d="M1126.2,238.9v-29.6h35.1v29.6H1126.2z M1127.1,369.3V251.8h33.3v117.5H1127.1z"/>
		<path class="st3" d="M1260.6,369.3v-12.7c-4.1,4.5-9,8.1-14.7,10.8c-5.7,2.7-12.6,4.1-20.8,4.1c-5.6,0-10.8-0.8-15.7-2.3
			c-4.9-1.5-9.2-3.8-12.8-6.9c-3.7-3.1-6.5-6.8-8.7-11.3c-2.1-4.5-3.2-9.6-3.2-15.5v-0.4c0-6.4,1.2-12,3.5-16.7
			c2.3-4.7,5.6-8.5,9.8-11.6c4.2-3.1,9.1-5.4,14.9-6.9c5.8-1.5,12.2-2.3,19.2-2.3c6,0,11.2,0.4,15.7,1.3c4.5,0.9,8.8,2,13,3.5v-2
			c0-7-2.1-12.3-6.4-16c-4.2-3.7-10.5-5.5-18.8-5.5c-6.4,0-12.1,0.5-17,1.6c-4.9,1.1-10,2.7-15.5,4.7l-8.3-25.4
			c6.4-2.8,13.2-5,20.2-6.8c7-1.8,15.5-2.6,25.4-2.6c18.3,0,31.6,4.5,39.9,13.4c8.3,8.9,12.5,21.3,12.5,37.3v68.2H1260.6z
			 M1261.2,321.9c-2.9-1.3-6.2-2.4-9.8-3.2c-3.6-0.8-7.4-1.2-11.5-1.2c-7.2,0-12.8,1.4-16.9,4.2c-4.1,2.8-6.1,6.8-6.1,12.1v0.4
			c0,4.5,1.7,8,5,10.5c3.4,2.5,7.7,3.7,13.2,3.7c7.9,0,14.2-1.9,19-5.7c4.7-3.8,7.1-8.8,7.1-14.9V321.9z M1226.6,238.9l24.8-38.8
			l28.7,12.5l-28.1,26.3H1226.6z"/>
		<path class="st3" d="M1395.8,369.3v-65.4c0-7.9-1.8-13.8-5.3-17.8s-8.5-6-14.9-6c-6.4,0-11.5,2-15.2,6c-3.7,4-5.6,9.9-5.6,17.8
			v65.4h-33.3V251.8h33.3v16.8c1.9-2.5,4-4.9,6.2-7.2c2.3-2.3,4.8-4.3,7.6-6.1c2.8-1.8,5.8-3.2,9.2-4.2c3.4-1,7.2-1.5,11.4-1.5
			c12.7,0,22.5,3.9,29.5,11.6c6.9,7.7,10.4,18.4,10.4,32v76.1H1395.8z"/>
	</g>
</g>
</svg>
